<?xml version="1.0" encoding="UTF-8"?>
<svg id="Layer_1" xmlns="http://www.w3.org/2000/svg" version="1.1" viewBox="0 0 200 200">
  <!-- Generator: Adobe Illustrator 30.0.0, SVG Export Plug-In . SVG Version: 2.1.1 Build 123)  -->
  <defs>
    <style>
      .st0 {
        fill: #6734b7;
      }

      .st1 {
        fill: #5fc2fd;
      }

      .st2 {
        fill: #faf7f5;
      }

      .st3 {
        fill: #1682f7;
      }

      .st4 {
        fill: #231f20;
      }

      .st5 {
        fill: #429cfc;
      }

      .st6 {
        fill: #c0e3fc;
      }

      .st7 {
        fill: #9a54e4;
      }

      .st8 {
        fill: #884ad7;
      }
    </style>
  </defs>
  <path class="st2" d="M130.11,85.19c-9.12-2.84-17.04-8.78-26.29-11.5-30.91-9.11-48.01,15.27-75.7,20.26l-1.75.24s.02,6.86,0,7.9c-.31,15.48-.3,31.21-.27,46.81v1.61s1.51,0,1.51,0c18.82-.66,34.02,11.44,52.22,13.73,17.94,2.26,28.45-3.53,44.94-7.06,6.35-1.35,12.74-1.97,19.23-1.42.01-22.83.05-45.64,1.75-68.33-5.4-.07-10.49-.64-15.65-2.25ZM121.33,150.49c-10.9,15.56-42.34,8.65-57.3,3.28-3.46-1.24-9.01-2.95-11.13-5.76-1.23-1.63-1.56-2.45-1.5-4.63.37-14.05,4.13-23.93,10.97-35.84,5.68-9.91,11.9-19.78,23.08-23.98,7.55-2.84,9.76-2.14,15.26,3.38,2.4,2.41,4.16,3.91,3.02,7.65-.16.54-.72,1.07-.74,1.47-.03.49.43,1.35.48,2.02.2,2.62-1.75,4.71-4.24,5.27-.81.18-2.91.09-3.46.42-.15.09-.85,1.54-1.58,2.05-1.57,1.1-4.03,1.11-5.79.57-.8-.24-2.6-1.57-2.82-1.58-.74-.07-2.68.96-3.88.15-.66,3.67-.98,7.4-.76,11.15.29,4.93,2.02,9.92,1.01,14.88h2c1.96-4.26,7.92-8.27,12.32-9.58,6.02-1.8,10.83-1.41,16.47.82,11.63,4.6,16.01,17.7,8.61,28.26Z"/>
  <path class="st3" d="M173.68,183.57c-.78,5.56-5.86,11.21-11.16,12.87-3.14.98-6.5.6-9.75.64-.67-.79-1.84-.89-2.74-1.39-3.91-2.2-5.73-6.38-6.03-10.74-.63-9.17,0-19.83.01-29.17.01-22.83.05-45.64,1.75-68.33.82-10.96,1.87-20.95,4.52-31.65,1.58-6.37,4.05-12.6,5.67-18.86.32-1.25.72-2.49.57-3.81-.88.71-1.98,1-3.12,1.01H39.24s-2.87-.26-2.87-.26c.04-1.12-.55-2.13-.52-3.38.02-1.03.49-1.73.52-2.62l1.26-.87,117.03-.14,1.86.51c-.11-.81.21-1.57.26-2.37.24-3.56.39-10.81-.08-14.21-.2-1.44-1.2-3.51-2.09-4.68l-3.61-3.27c4.52-.48,9.51,3.5,10.2,7.94.85,5.43-.34,12.97.05,18.72.26,3.78,2.19,7.57,3.33,11.19,4.53,14.38,6.86,26.25,7.94,41.37,2.4,33.64.84,67.71,1.14,101.51Z"/>
  <path class="st5" d="M156.71,10.78c-.2-1.44-1.2-3.51-2.09-4.68l-3.61-3.27H45.25c-11.17,1.01-9.74,13.08-9.39,21.41.05,1.14.55,2.51.51,3.62l1.26-.87,117.03-.14,1.86.51c-.11-.81.21-1.57.26-2.37.24-3.56.39-10.81-.08-14.21ZM79.3,19.35l-31.01-.03c-4.94-.59-4.66-7.17-.21-7.68.79-.09,1.31.26,1.94.23,7.94-.38,16.09-.37,24.02-.29,1.68.02,3.92-.18,5.49.04,4.57.63,4.71,7.18-.23,7.74Z"/>
  <path class="st1" d="M48.08,11.64c.79-.09,1.3.25,1.94.22,7.94-.38,16.09-.37,24.02-.28,1.68.02,3.92-.18,5.49.03,4.57.63,4.71,7.18-.23,7.74l-31.01-.03c-4.94-.59-4.66-7.17-.21-7.68Z"/>
  <path class="st1" d="M155.95,36.92c-1.62,6.26-4.09,12.49-5.66,18.87-2.66,10.69-3.7,20.69-4.52,31.64-5.41-.06-10.49-.64-15.66-2.24-9.12-2.83-17.04-8.78-26.3-11.5-30.89-9.11-48.01,15.26-75.7,20.25-.53.1-1.12.16-1.74.25-.23-1.79.18-3.64.26-5.37.58-15.07,2.11-29.93,6.38-44.43.74-2.51,3.31-8.4,3.37-10.52l2.87.26h114.16c1.14-.01,2.24-.29,3.11-1.01.15,1.31-.25,2.55-.56,3.8Z"/>
  <path class="st6" d="M36.4,58.46c1.49-.24,2.85.67,3.29,2.09s-.47,3.55-.73,5.07c-.92,5.31-1.41,10.5-1.47,15.91-.84,3.26-5.75,2.77-6.03-1.13-.29-4.12,1.2-15.84,2.47-19.81.35-1.1,1.31-1.95,2.47-2.13Z"/>
  <path class="st1" d="M152.77,197.07c-37.33.44-74.69-.34-112.03.01-7.4-.61-13.22-6.86-14.57-13.97l-.07-32.6c.5-.01,1.01.02,1.5,0,18.82-.66,34.02,11.44,52.22,13.73,17.94,2.26,28.45-3.53,44.94-7.06,6.35-1.35,12.74-1.97,19.23-1.42,0,9.34-.64,20-.01,29.17.3,4.36,2.12,8.54,6.03,10.74.9.5,2.07.61,2.74,1.39Z"/>
  <path class="st7" d="M101.97,146.15c8.89-1.54,20.84-11.13,13.5-20.53-.85-1.09-2.56-1.96-2.75-3.38-5.64-2.23-10.45-2.62-16.47-.82-4.4,1.31-10.36,5.32-12.32,9.58-.47,1.02-.86,2.85-1.14,3.99-.16.65.09,1.74-.81,1.2-.08-.05-.17-.47-.45-.65-.27-.18-1.66-.89-1.83-.77-.34,1.82-8.58,7.06-9.53,6.24l2.91-3.72c4.82-7.41,2.94-13.18,3.34-21.19.15-2.96.83-5.91,1.01-8.88-.26-.29-1.78,1.38-1.99,1.63-1.24,1.5-1.97,3.4-2.95,5.05-.16.28-.18.69-.56.2,1.16-4.2,2.86-8.26,4.96-12.07l-.45-2.58c.81-.06,1.05.96,1.52,1.35,1.8,1.49,3.62,2.24,6,1.79,1.2-.23,2.89-1.72,3.61-1.64,1.58.17,4.56,5.34,6.75,1.49,1.37-2.41-2.96-4.52-1.6-7.24l.9,1.73c1.14,1.07,1.81,2.96,3.71,2.77,1.2-.12,2.07-1.72,1.85-2.81-.2-1-4.04-6.84-3.71-7.19l1.25-.25c-.47,1.61,3.57,4.86,4.83,4.03,1.61-1.06-.08-4.29-.7-5.53-.09-.19-.53-.92-.13-.99-5.5-5.51-7.71-6.22-15.26-3.38-11.18,4.21-17.39,14.08-23.08,23.98-6.84,11.91-10.6,21.79-10.97,35.84-.06,2.18.27,3,1.5,4.63,1.82.28,3.22.43,4.26-1.37.31-.52.03-1.22.62-1.13,1.69,2.83,6.01,3.23,9.02,3.01.91-.07,1.95-.58,2.72-.51,1.44.15,5.53,2.32,7.4,2.88,8.37,2.49,21.83,3.07,29.55-1.51.32-.19.63.05.49-.62-4.92.84-10.33.63-14.93-1.46-.35-.16-4.2-2.24-3.59-2.79,4.4,1.69,8.83,2.46,13.53,1.64ZM87.95,144.56c-.17,0-.31-.14-.31-.31s.14-.31.31-.31.31.14.31.31-.14.31-.31.31Z"/>
  <path class="st0" d="M52.9,148.01c1.82.27,3.22.43,4.26-1.37.3-.52.02-1.22.61-1.13,1.69,2.83,6.01,3.23,9.02,3.01.91-.07,1.95-.58,2.72-.51,1.44.14,5.53,2.32,7.4,2.88,8.37,2.49,21.83,3.07,29.55-1.51.32-.19.63.05.49-.62-4.92.84-10.33.63-14.93-1.46-.35-.16-4.2-2.24-3.59-2.79,4.4,1.69,8.83,2.45,13.53,1.64,8.89-1.54,20.84-11.13,13.5-20.53-.85-1.09-2.56-1.96-2.75-3.39,11.63,4.61,16.01,17.7,8.61,28.26-10.9,15.56-42.34,8.65-57.3,3.28-3.46-1.24-9.01-2.95-11.13-5.76Z"/>
  <path class="st0" d="M100.71,86.93c2.4,2.41,4.15,3.91,3.02,7.65-.16.54-.72,1.07-.74,1.47-.03.49.43,1.36.48,2.02.2,2.62-1.75,4.71-4.24,5.27-.81.18-2.91.09-3.46.42-.15.09-.85,1.54-1.58,2.05-1.57,1.1-4.03,1.11-5.8.57-.8-.24-2.6-1.57-2.82-1.59-.74-.06-2.68.96-3.88.15-.66,3.68-.98,7.4-.76,11.15.29,4.93,2.02,9.92,1.01,14.88h2c-.47,1.02-.86,2.85-1.14,4-.16.65.09,1.75-.81,1.2-.08-.05-.17-.47-.45-.65s-1.66-.89-1.83-.77c-.34,1.82-8.58,7.06-9.54,6.24l2.91-3.72c4.82-7.41,2.94-13.18,3.34-21.19.15-2.96.83-5.91,1.01-8.87-.26-.29-1.78,1.38-2,1.63-1.24,1.5-1.97,3.4-2.95,5.05-.16.28-.18.69-.56.19,1.16-4.2,2.87-8.25,4.96-12.06l-.45-2.58c.81-.06,1.05.96,1.52,1.35,1.8,1.49,3.62,2.24,6,1.79,1.2-.23,2.89-1.72,3.61-1.65,1.58.17,4.56,5.34,6.75,1.49,1.37-2.41-2.96-4.51-1.6-7.24l.9,1.73c1.14,1.07,1.81,2.96,3.71,2.77,1.2-.12,2.07-1.72,1.85-2.81-.19-1-4.04-6.84-3.71-7.19l1.25-.25c-.47,1.61,3.57,4.86,4.83,4.03,1.61-1.06-.08-4.28-.7-5.53-.09-.19-.53-.92-.13-1Z"/>
  <circle class="st8" cx="87.95" cy="144.25" r=".31"/>
  <g>
    <path class="st4" d="M66.69,61.06c-1.15-1.2-1.71-3.16-1.71-5.88h3.1c0,2.32.41,3.83,1.24,4.52s2.03,1.05,3.61,1.05,2.79-.29,3.63-.87,1.25-1.37,1.25-2.36c0-1.22-.51-2.07-1.54-2.56-1.02-.49-2.46-.95-4.33-1.4-2.49-.62-4.27-1.3-5.34-2.06-1.07-.75-1.61-1.99-1.61-3.69,0-1.55.59-2.88,1.77-3.97,1.18-1.1,3.23-1.65,6.15-1.65s5.05.62,6.2,1.85c1.15,1.24,1.73,3.14,1.73,5.71h-3.1c0-2.24-.42-3.71-1.27-4.39s-2.05-1.03-3.59-1.03-2.78.29-3.63.88-1.27,1.35-1.27,2.28c0,1.18.52,2.02,1.55,2.52s2.46.98,4.3,1.44c2.56.62,4.37,1.29,5.43,1.99,1.07.71,1.6,1.93,1.6,3.65,0,1.62-.58,2.99-1.73,4.11s-3.21,1.67-6.18,1.67-5.12-.6-6.26-1.81h0Z"/>
    <path class="st4" d="M93.6,59.28c-.32.64-.8,1.1-1.4,1.35-.6.28-1.28.41-2.08.41-1.4,0-2.48-.5-3.26-1.54-.62-.78-1.01-1.97-1.15-3.57,0-.16-.02-.34-.02-.53-.02-.28-.02-.55-.02-.85v-.39h11.46c-.05-2.54-.6-4.49-1.63-5.8-1.1-1.4-2.91-2.08-5.43-2.08s-4.24.69-5.36,2.08c-1.15,1.38-1.72,3.44-1.72,6.19s.55,4.65,1.67,6.12c1.1,1.47,2.93,2.2,5.45,2.2,1.38,0,2.52-.19,3.42-.53.89-.36,1.63-.94,2.2-1.72.55-.78.91-1.74,1.08-2.84l-2.5-.69c-.16.8-.39,1.54-.71,2.18h0ZM86.91,49.53c.8-.91,1.85-1.4,3.16-1.4s2.41.46,3.16,1.33c.5.64.83,1.63.99,2.96h-8.41c.19-1.3.55-2.24,1.1-2.89h0Z"/>
    <path class="st4" d="M112.89,53.42v9.33h-2.77v-9.31c0-1.88-.28-3.23-.85-4.01-.55-.8-1.42-1.19-2.57-1.19s-2.02.6-2.82,1.44c-.58.64-1.01,1.3-1.19,2.13v10.93h-2.79v-16.3h2.2l.02,2.75c.25-.39.58-.78.94-1.15,1.21-1.17,2.75-1.77,4.65-1.77s3.23.64,4.01,1.9c.78,1.28,1.17,3.02,1.17,5.22v.02Z"/>
  </g>
  <g>
    <path class="st4" d="M58.81,170.48h10.95c2.31,0,3.77.48,4.35,1.43s.88,1.98.88,3.07-.24,2.1-.74,2.96-1.29,1.31-2.41,1.34c1.14.07,2.01.54,2.64,1.4s.94,1.98.94,3.31c0,1.54-.29,2.83-.85,3.88-.57,1.05-2.03,1.57-4.37,1.57h-11.38v-18.97h0ZM68.4,177.92c.7,0,1.17-.21,1.4-.61s.35-.95.35-1.64c0-.63-.1-1.12-.32-1.45s-.64-.5-1.29-.5h-4.96v4.2h4.81ZM68.98,186.2c.68,0,1.12-.22,1.34-.65.21-.43.32-1.12.32-2.04s-.12-1.56-.37-2.02-.77-.69-1.55-.69h-5.11v5.41h5.38,0Z"/>
    <path class="st4" d="M91.4,174.43v15.02h-4.27l.02-1.37c-.51.59-1.79,1.5-4.77,1.5-1.96,0-3.32-.63-4.03-1.9-.74-1.27-1.1-2.96-1.1-5.09v-8.15h4.25v7.95c0,1.67.21,2.81.59,3.4.4.59,1.01.88,1.86.88s1.65-.36,2.28-1.06c.59-.61.88-1.46.93-2.47v-8.7h4.25,0Z"/>
    <path class="st4" d="M94.28,169.55h4.27v19.9h-4.27v-19.9Z"/>
    <polygon class="st4" points="115.44 189.45 110.88 189.45 107.72 183.03 105.43 185.54 105.43 189.45 101.18 189.45 101.18 169.55 105.43 169.55 105.43 180.02 110.34 174.43 115.31 174.43 110.54 179.92 115.44 189.45"/>
  </g>
</svg>